<svg xmlns="http://www.w3.org/2000/svg" data-name="Layer 1" viewBox="-20 -20 140 140" x="0px" y="0px" data-icon="true" fill="#023564"><title>06</title><g data-name="Group"><path data-name="Compound Path" d="M38.4,13.5C26,17.8,17.5,29,17.2,41.4L6.3,69.2l11.1,1.1,1.3,16.1,13.4-.9V96.7h6V79.1L24.3,80,23.1,64.8,14.8,64l8.4-21.4V42c0-9.3,6.2-18.1,15.2-22.1V45.3H55V57.6L71.7,45.3h3c-.2,4.2-.7,8.7-1.2,12.8s-.7,6.2-.9,8.8c-.1.8-.1,1.5-.2,2.3a47.9,47.9,0,0,0-.2,8.3V96.7h6V77.1a42.1,42.1,0,0,1,.2-7.4c.1-.8.1-1.6.2-2.3.2-2.4.5-5.4.9-8.5s1.1-9.1,1.3-13.5h13V3.3H38.4Zm6-4.1H87.7v30h-18L61,45.7V39.3H44.4Z"></path></g></svg>